<?xml version="1.0" encoding="utf-8"?>
<!-- Generator: Adobe Illustrator 22.1.0, SVG Export Plug-In . SVG Version: 6.00 Build 0)  -->
<svg version="1.1" xmlns="http://www.w3.org/2000/svg" xmlns:xlink="http://www.w3.org/1999/xlink" x="0px" y="0px"
	 viewBox="0 0 3000 2250" style="enable-background:new 0 0 3000 2250;" xml:space="preserve">
<style type="text/css">
	.st0{fill:#FFFFFF;}
	.st1{fill:#FFE2DB;}
	.st2{fill:#EBF2FF;}
	.st3{fill:none;stroke:#003188;stroke-width:8;stroke-linecap:round;stroke-linejoin:round;stroke-miterlimit:10;}
	.st4{fill:#003188;stroke:#003188;stroke-width:8;stroke-linecap:round;stroke-linejoin:round;stroke-miterlimit:10;}
	.st5{fill:none;stroke:#FF3B0D;stroke-width:8;stroke-linecap:round;stroke-linejoin:round;stroke-miterlimit:10;}
</style>
<g id="background">
	<rect class="st0" width="3000" height="2250"/>
</g>
<g id="color_shadow">
	<g>
		<path class="st1" d="M1936,758c-47.4,3.2-33.5,66.2-31.4,98.6c1.4,21.5-4.5,124.1,19.9,135.3c43.6,20.1,38.6-70.6,40.2-93.7
			C1967.1,861.4,1990,759.7,1936,758z"/>
		<path class="st1" d="M1936.2,1034.2c-44.1,0-45,67.4-0.2,68C1979.8,1102.8,1980.7,1034.2,1936.2,1034.2z"/>
		<path class="st1" d="M2357.6,1197.3c-86.4-152.3-172.8-304.5-259.2-456.8c-38.1-67.2-72.2-140.1-115.7-203.9
			c-51.9-76.2-94.2,1.2-120.7,47.9c-103,181.5-206,363.1-309,544.6c-26.2,46.3-87.7,132.3,7.8,146.2c69.4,10.1,147.9,0,217.9,0
			c129.2,0,258.3,0,387.5,0C2206.6,1275.3,2415.3,1299.1,2357.6,1197.3z M2302.9,1216.4c-21.1,23-130.9,4.9-157.7,4.9
			c-105.3,0-210.5,0-315.8,0c-76.2,0-155.2,6-231.2,0c-55.7-4.4-20.1-47.9-1.8-80c93.8-165.3,187.6-330.6,281.4-496
			c14.4-25.4,40.6-104,73.1-76.4c13.4,11.4,23.2,40.9,31.7,55.9c20.6,36.2,41.1,72.5,61.7,108.7c58,102.2,116,204.5,174,306.7
			C2230.4,1061.6,2326.6,1190.5,2302.9,1216.4z"/>
	</g>
	<g>
		<path class="st1" d="M1164.5,622.3c5.7,9.4,13.2,5.2,19.8,1.2c12.3-7.5-2.1-45.5-5.4-55.2c-8.5-24.7-19.1-43.8-41.6-57.1
			c-51.2-30.1-120.4-20.3-170.4,7.1c-76.9,42.1-96.5,128.5-113.9,207.4c-18.5,84.1-51,137.2-106.5,201.5
			c-14.4,16.7-66.8,68.4-60.3,92.6c8.8,32.7,42.6-6.2,62.4-14.3c72.3-29.4,165.4-17,199.2-102.6c29.2-73.8,24.9-160,23.8-231.7
			c27.5-79.8,125.8-60.1,163.9-123.8C1141.1,573.9,1150.2,599,1164.5,622.3z"/>
		<path class="st1" d="M1224.4,982.7c-18.5-26.1-39-44.4-54.4-73.2c-6.1-11.3-9.9-48.6-26.9-17.6c-12.5,22.8,20.4,74.1,33.1,94
			c6.6,10.3,13,25,25.5,28.9C1221.6,1021.1,1238.8,1003,1224.4,982.7z M1205.3,997.5c0.1,0.1,0.1,0.1,0.2,0.1
			C1205.3,997.6,1205.2,997.6,1205.3,997.5z M1205.6,997.6"/>
	</g>
</g>
<g id="shadow">
	<path class="st2" d="M995.1,747.3c27.4,42.8,86,31.6,51.6-14C1026,706,973.5,713.6,995.1,747.3z"/>
	<path class="st2" d="M1174.6,746.3c1.5-22.3,11.2-49.2-16.8-31.7C1123.5,734.5,1159.1,764.6,1174.6,746.3z"/>
	<path class="st2" d="M1103.2,841.6c25.3,1.9,32.8-26.8,4.9-28.6C1084.7,811.5,1080.8,839.9,1103.2,841.6z"/>
	<path class="st2" d="M1023,1046.7c18.4,76.6,132.2,5.8,111.8-50.6c-8.9-24.5-37.8-48.6-59.9-40.1
		C1052.6,964.5,1017.5,1023.9,1023,1046.7z"/>
	<path class="st2" d="M904.6,1605.9c-24.8,12.6-52.1,19.4-80.2,17.7c-55.8-3.4-86.2-40.1-112-86.4c26.3-14,86.1-0.2,104.2,6.7
		C836.3,1551.3,897.1,1579,904.6,1605.9z"/>
	<path class="st2" d="M1171.2,1485.5c-33,22.9-67.2,43.9-102.5,63c-16.9,9.1-67.3,36.2-22.5,41c23.8,2.5,84.3-46.1,104.8-59.2
		c9.5-6.1,33.4-16.1,36.4-26.3C1189.7,1495.8,1187,1474.6,1171.2,1485.5z"/>
	<path class="st2" d="M1160.5,1541.8c-11.7-11.7-104.6,56.1-94.8,72.3C1078.6,1635.6,1179.9,1561.3,1160.5,1541.8z"/>
	<path class="st2" d="M1941.4,1725.2c-2.3-95.2-0.1-190.7-0.1-285.9c0-40.2,3.3-81.8,0-121.9c-4.2-50-41.7-32.8-41.4,6.7
		c0.9,105.3-0.6,398.5-1.4,424.8C1897.9,1765.8,1942.1,1754.5,1941.4,1725.2z"/>
	<path class="st2" d="M1224.4,1151.5c-10.2-18.9-22.2,3.2-22.5,13.2c-0.6,19.3,29.3,61.2,36.6,81.2c21.4,58.7,21.7,102.9,4.3,162.9
		c-16,55.4-30.4,110.8-38.3,168.1c-3.9,28.3-6.5,56.7-7.4,85.2c-0.7,22.3-8.7,84.2,4.3,102.4c34.1,47.7,21.2-72,21.4-88.8
		c0.7-62.2,9.9-124.1,24.4-184.5c13.2-55.1,41-113.3,37-170.9C1280.2,1261.8,1251.8,1202.3,1224.4,1151.5z"/>
	<path class="st2" d="M959.9,1070.1c22,6.7,11.8-18.4,6.9-25.2c-1.6-2.2-68.2-41.7-67.4-41.6
		C846.8,1002.2,943.5,1065.1,959.9,1070.1z"/>
	<path class="st2" d="M1149.8,1082.4c10.6,18.1,79.9-18.2,71.2-38.9C1212.7,1023.5,1138.4,1062.9,1149.8,1082.4z"/>
	<path class="st2" d="M962.9,1162.9c-10.2-5.7-20.3,4.5-19.4,14.4c1.2,12.5,25.3,17.9,34.6,22c21.7,9.4,88.9,37.7,112.3,25.2
		c30.2-16.2-1.9-24.1-19.1-27.3C1032.8,1189.8,997.7,1182.4,962.9,1162.9z"/>
	<path class="st2" d="M1067.7,1247.9c-33.3-8.7-62.7-23.5-92.2-40.7c-17.9-10.5-51.2-29-35.9,6.7c8.6,20,65.3,40,84.2,47.3
		c7.2,2.8,38.1,17.6,47.1,10.4C1078.8,1265.3,1079.6,1251,1067.7,1247.9z"/>
	<path class="st2" d="M806.7,1696.2c-26.2-23.1-91.7-48.2-44.4-1.3c6.1,6,69.9,48.8,57.6,62c-20.2,21.8-90.2-47.9-83.4,7.7
		c4.9,40,99.5,66.9,50.7,15.5C863.5,1798,847.7,1732.4,806.7,1696.2z"/>
	<path class="st2" d="M1156.8,1704c-12.5,11.8-98.6,79.2-41,71.3c7.8-1.1,57.9-45.3,59.4-52.8C1177,1713.4,1174,1687.7,1156.8,1704z
		"/>
	<path class="st2" d="M828.4,1162.3c-10,10,20.9,77.6,36.8,60.2C878.9,1207.5,848.1,1142.7,828.4,1162.3z"/>
	<path class="st2" d="M837.7,985.1c-58.8,21.9-196.5,42.1-176.7,202.5l-5.6,6.4c0.7,5.1,4.7,6.5,10.5,5.7
		c11.8,4.2,45.7-22.2,55.9-28.6l0,0c45.9-28.7,80.1-72.3,106.4-119.7C852.2,1008.2,837.7,985.1,837.7,985.1z"/>
</g>
<g id="outline">
	<path class="st3" d="M1159,810.5c5.5-12.9,9.2-26.9,11.7-40.5c6.4-33.9,6.4-63.5,5.3-94.8"/>
	<path class="st3" d="M988,823.3c41.6,47.6,105.5,43.9,124.2,36.7"/>
	<path class="st3" d="M1025.8,648.9c15.7-8.2,34.9-9.5,51.5-3.4"/>
	<path class="st3" d="M1156,650.5c-9.8-1.7-20-1.1-29.5,1.9c-6.2,2-12.7,5.5-14.8,11.7c-1,2.9-0.8,6.1-0.5,9.2
		c0.8,7.9,2.6,15.7,5.2,23.1c3.3,9.4,7.9,18.3,10.5,27.9c0.5,1.9,0.9,3.9,0.3,5.7c-0.6,1.8-2.2,3.1-3.7,4.3
		c-4.6,3.7-9.5,7.1-14.6,10.1"/>
	<path class="st3" d="M1090.6,793.8c8.7-2.4,17.3-4.9,26-7.3"/>
	<g>
		<path class="st3" d="M984.9,1050.1c-7.1-24.6-1.3-51,5.8-75.6c7.1-24.6,15.5-49.7,13.5-75.2c-0.8-10.2-3.3-20.5-1.7-30.6
			c0.3-2.1,0.9-4.2,2.4-5.7c4.1-3.9,10.7,0.3,14.3,4.7c15.4,18.7,23.4,43.3,22.1,67.5"/>
		<path class="st3" d="M1026,957.1c9.3-15.1,25.2-24.4,39-35.6c34.4-28,57.3-69.8,95.9-91.6c2-1.1,4.6-2.2,6.5-0.9
			c1.1,0.7,1.6,1.9,2,3.1c1.8,6.4-1.3,13.1-4.4,19c-17.7,33.4-38.1,65.3-60.9,95.4"/>
		<path class="st3" d="M1128.5,917.8c3.6-0.8,7.5,1.3,9.5,4.4c2.1,3.1,2.7,7,2.8,10.7c0.4,8.2-1.2,16.5-4.5,24"/>
		<path class="st3" d="M1142.6,942.4c5.9,1.4,9.7,7.5,10.4,13.6c0.7,6-1,12.1-2.7,17.9"/>
		<path class="st3" d="M1153.9,960.3c7.7,3.6,11.2,13,10.8,21.5c-0.7,14.4-9.8,26.7-18.6,38.1c-20.5,26.6-41,53.2-61.5,79.8"/>
		<path class="st3" d="M1115.9,976.2c-1.1,1.7-2.2,3.3-3.3,5"/>
		<path class="st3" d="M1133.4,998.7c-0.6,1.4-1.1,2.8-1.7,4.2"/>
		<path class="st3" d="M1119.2,892.5c1.4,0.3,2.8,0.6,4.2,0.8"/>
	</g>
	<path class="st3" d="M1096.3,1112.7c-40.6,154.8-48.3,443.5-210.6,502.7c-19.3,7-40.7,9.4-61.2,8.2c-66.6-4.1-111.3-66.2-129.2-125
		c-19.1-62.7-22.9-131.3-27.2-196.3c-3.5-53.2-5.4-106.6-6.2-159.9c-0.6-42.1,20.6-85.6,55.5-111c17.2-12.5,136.5-55.2,194.3-73.4"
		/>
	<path class="st3" d="M880.2,1174c-1.3,64.6-2.6,129.3-3.9,193.9c-0.5,27-1.1,54.5-8.2,80.4c-0.8,2.9-1.8,6-4,7.7
		c-6.2,4.7-12.9-5.4-13.9-13.7c-2.7-22.3,5.1-44.4,12.9-65.2c40.6-108.2,65.5-212,115.1-315.2"/>
	<path class="st3" d="M1202.4,1019.4c43.4,6.1,78.1,42,94.6,82.6c16.5,40.6,22.8,85.9,17.4,129.4c-20.3,161.5-36.6,276.1-55.5,426.2
		"/>
	<path class="st3" d="M1252.2,1687.9c-0.7,6.1-1.3,12.2-2,18.2"/>
	<path class="st3" d="M1212.4,1158.8c17.5,40.2,32.1,81.6,43.7,123.8c4.9,17.9,9.3,36.1,9.8,54.6c0.9,33.5-10.7,65.9-20.3,97.9
		c-32.7,108.7-44.3,223.6-33.9,336.6"/>
	<path class="st3" d="M737.1,1633.1c-8.2,56.5-22.1,112.1-41.5,165.7"/>
	<path class="st3" d="M856,979.2c29,34.1,58.6,53.1,99.8,70.7"/>
	<path class="st3" d="M1152.4,1077.2c22.8-6.7,44.5-17.4,63.8-31.4"/>
	<path class="st3" d="M962.3,1115.3c-9.6-6.3-23.5-9.3-31.7-1.3c-6.3,6-6.7,16.3-3.1,24.3c3.6,7.9,10.3,13.9,17.2,19.3
		c46.6,36.7,106.4,56.4,165.7,54.5"/>
	<path class="st3" d="M923.1,1175.9c36.9,44.6,91.9,73.9,149.5,79.6"/>
	<path class="st3" d="M841.7,1174.2c9.9,11.5,16.3,25.9,18.1,41"/>
	<path class="st3" d="M1179.4,1499.4c-38.9,31-81.7,57-127.1,77.2"/>
	<path class="st3" d="M1150,1556.2c-22.6,19.7-46.3,38.3-70.8,55.5"/>
	<path class="st3" d="M758.7,1682.5c32.6,17.6,61.1,43,82.3,73.4c3.8,5.4,7,13.6,2,17.8c-3.1,2.6-7.6,1.9-11.5,1.1
		c-30.2-6.1-60-14.7-88.8-25.6c19.4,22.1,38.8,44.1,58.2,66.2"/>
	<path class="st3" d="M1170.6,1722c-18.8,14.4-37.6,28.9-56.4,43.3"/>
	<path class="st3" d="M956.2,902.8c-1,9.2-2.8,18.3-5.4,28.9"/>
	<path class="st3" d="M1055.4,682.2c0.8,4.9,0.9,10,0.2,14.9c-0.1,0.8-0.4,1.8-1,1.9c-0.6,0.1-1-0.7-1.3-1.4
		c-1.7-4.9-1.5-10.9,0.7-15.5"/>
	<path class="st3" d="M1143.7,677.1c0.5,4.4,0.5,9,0.1,13.5c-0.1,0.8-0.2,1.7-0.6,1.7c-0.3,0.1-0.6-0.6-0.8-1.3
		c-1-4.4-0.9-9.9,0.4-14"/>
	<path class="st3" d="M2321.2,845.9c19.8-10.7,39.6-21.5,59.4-32.2"/>
	<path class="st3" d="M2331.3,926c23.9,1.7,47.7,3.3,71.6,5"/>
	<path class="st3" d="M1481.3,939.5c23.5-3.7,46.8-8.9,69.6-15.7"/>
	<path class="st3" d="M1507.3,816.1c17.2,11.4,34.3,22.7,51.5,34.1"/>
	<path class="st3" d="M1271.3,950.6c0.3,1.3,2.1,1.9,3.2,1.2c1.1-0.8,1.1-2.7,0-3.4c-0.6-0.4-1.5,0.5-1.2,1.2
		c0.3,0.7,1.6,0.4,1.6-0.3"/>
	<path class="st3" d="M645.3,1631.5c-0.9,1.4,0.2,3.6,1.9,3.7c1-0.4,2.1-0.8,2.6-1.8c0.5-0.9-0.1-2.4-1.2-2.3
		c-1.1,0.1-0.6,2.3,0.3,1.7"/>
	<path class="st3" d="M1325.9,1596.4c-1.6-0.4-3.5,0.4-4.2,1.9c1.3,1.6,4.3,1.1,5-0.8c0.6-1.4-2-2.6-2.6-1.2"/>
	<path class="st3" d="M1354.9,1300.8"/>
	<path class="st3" d="M2425.2,1212.8c-0.9,1.2-0.2,3.1,1.2,3.5c1.4,0.4,3-0.8,2.9-2.3"/>
	<path class="st3" d="M1900.8,1752.4c0-157.3,0-314.7,0-472"/>
	<path class="st3" d="M1969.1,1277c0,155.7,0,311.4,0,467"/>
	<path class="st3" d="M1917.6,1342.4c0,110.1,0,220.1,0,330.2"/>
	<path class="st4" d="M1934.7,1316c31.9,0,34.4-14.4,34.4-14.4v-24.8h-68.4v28.1C1900.8,1304.9,1903.5,1316,1934.7,1316z"/>
	<path class="st3" d="M1781.8,1511.8c-1.2-0.8-2.4,1.8-1.1,2.2"/>
</g>
<g id="color_outline">
	<g>
		<path class="st5" d="M2356.6,1198.1l-379.1-668.2c-2.4-4.2-5.2-7.9-8.4-11.1c-22-22.1-59.9-18.5-76.7,11.1l-379.1,668.2
			c-4.8,8.5-7,17.5-7,26.3c0,14.3,5.8,28.1,15.6,37.8c8.6,8.6,20.4,14,33.9,14h758.2c28.9,0,49.5-24.8,49.5-51.8
			C2363.6,1215.6,2361.4,1206.6,2356.6,1198.1z M2301.9,1217.3c-3,3.2-6.6,4.9-10.8,4.9h-712.2c-4.2,0-7.9-1.6-10.8-4.9
			c-3.2-3.5-5-8.3-5-13.2c0-3.3,0.9-6.6,2.6-9.6l356.1-627.6c4.1-7.2,10.1-8.3,13.3-8.3c3.2,0,9.2,1.1,13.3,8.3l356.1,627.6
			c1.7,3,2.6,6.2,2.6,9.6C2306.9,1209,2305.1,1213.8,2301.9,1217.3z"/>
		<path class="st5" d="M2306.9,1204.1c0,4.9-1.8,9.7-5,13.2c-3,3.2-6.6,4.9-10.8,4.9h-712.2c-4.2,0-7.9-1.6-10.8-4.9
			c-3.2-3.5-5-8.3-5-13.2c0-3.3,0.9-6.6,2.6-9.6l356.1-627.6c4.1-7.2,10.1-8.3,13.3-8.3c3.2,0,9.2,1.1,13.3,8.3l356.1,627.6
			C2306,1197.6,2306.9,1200.8,2306.9,1204.1z"/>
		<path class="st5" d="M2306.9,1204.1c0,4.9-1.8,9.7-5,13.2c-3,3.2-6.6,4.9-10.8,4.9h-712.2c-4.2,0-7.9-1.6-10.8-4.9
			c-3.2-3.5-5-8.3-5-13.2c0-3.3,0.9-6.6,2.6-9.6l356.1-627.6c4.1-7.2,10.1-8.3,13.3-8.3c3.2,0,9.2,1.1,13.3,8.3l356.1,627.6
			C2306,1197.6,2306.9,1200.8,2306.9,1204.1z"/>
		<path class="st5" d="M1909.9,954.2c1.4,14.1,3.6,24.6,6.8,31.5c3.2,6.9,8.9,10.3,17.1,10.3c0.4,0,0.8,0,1.1,0c0.4,0,0.7,0,1.1,0
			c8.2,0,13.9-3.4,17.1-10.3c3.2-6.9,5.5-17.4,6.8-31.5l7.3-108.9c1.4-21.2,2-36.5,2-45.7c0-12.6-3.3-22.4-9.9-29.5
			c-6.3-6.7-14.4-10.2-24.4-10.5v0c0,0,0,0,0,0c0,0,0,0,0,0v0c-10,0.3-18.2,3.8-24.4,10.5c-6.6,7.1-9.9,16.9-9.9,29.5
			c0,9.2,0.7,24.5,2,45.7L1909.9,954.2z"/>
		<path class="st5" d="M1935.2,1035.8c-0.1,0-0.2,0-0.2,0c-0.1,0-0.2,0-0.2,0c-9.6,0-17.6,3.3-24.2,9.9c-6.6,6.6-9.9,14.6-9.9,24
			c0,10.8,3.4,19.1,10.3,25.1c6.8,5.9,14.8,8.9,24,9v0c0,0,0,0,0,0c0,0,0,0,0,0v0c9.2-0.1,17.1-3.1,24-9c6.9-6,10.3-14.4,10.3-25.1
			c0-9.4-3.3-17.4-9.9-24C1952.8,1039.1,1944.7,1035.8,1935.2,1035.8z"/>
	</g>
	<g>
		<path class="st5" d="M1135.4,499c-54.1-41.4-134.1-39.4-192.3-3.9c-58.2,35.5-95.3,99.5-108.8,166.3
			c-10.7,52.8-8.9,110.2-36.8,156.3c-21.3,35.1-57,58.5-85.6,88c-45.4,46.9-85.2,129.9-52.4,193.9"/>
		<path class="st5" d="M1135,498.8c40.3,30.6,60.9,95,41.7,166.4"/>
		<path class="st5" d="M1129.6,494.9c2.5,18.3,9.4,49.3,4.2,67.1"/>
		<path class="st5" d="M1122.9,563.7c-23.5,17.4-51.3,27.8-77.8,40.2c-26.5,12.3-50.9,27.5-67.9,51.3"/>
		<path class="st5" d="M1018,551.8c-30.3,35.8-41.4,84.2-44.3,131.1c-2.9,46.8,1.3,94-3,140.7s-18.5,94.8-51.9,127.7"/>
		<path class="st5" d="M906.3,824.1c-3.8,22.6-14.7,43.6-28.5,62s-30.2,34.5-46.7,50.6"/>
		<path class="st5" d="M787.7,885.7c-19.9,18.6-39.8,37.3-55.6,59.5c-15.7,22.2-27,48.3-27.2,75.5"/>
		<path class="st5" d="M730,975.2c-4.8,7.8-7.5,16.8-7.7,26"/>
		<path class="st5" d="M1008.1,599.3c26.2-8.3,50.5-22.3,70.9-40.7"/>
		<path class="st5" d="M1040.4,570.1c7.5-4.9,15-9.8,22.5-14.7"/>
		<path class="st5" d="M935.3,519.9c-24.1,18.8-43.8,43.2-57.2,70.8"/>
		<path class="st5" d="M874,603.9c-0.5,0.5-1.1,1.1-1.6,1.6"/>
		<path class="st5" d="M1133.8,561.9c20.7,30.8,37.8,66.5,42.9,103.3"/>
		<path class="st5" d="M1169.6,881.6c2.2,21.7,10.8,42.6,24.5,59.6c17.3,21.3,43.3,38.1,48.6,65"/>
		<path class="st5" d="M1180.2,957.9c9.2,17,21.7,32.1,36.6,44.4"/>
	</g>
	<path class="st5" d="M958.7,597.5c-26.8,55.2-23.3,119.4-26.9,180.6c-3.6,61.2-18.9,128.4-69,163.7"/>
</g>
</svg>
