<?xml version="1.0" encoding="utf-8"?>
<!-- Generator: Adobe Illustrator 22.1.0, SVG Export Plug-In . SVG Version: 6.00 Build 0)  -->
<svg version="1.1" xmlns="http://www.w3.org/2000/svg" xmlns:xlink="http://www.w3.org/1999/xlink" x="0px" y="0px"
	 viewBox="0 0 3000 2250" style="enable-background:new 0 0 3000 2250;" xml:space="preserve">
<style type="text/css">
	.st0{fill:#FFFFFF;}
	.st1{fill:#DAFADD;}
	.st2{fill:none;stroke:#00B60F;stroke-width:8;stroke-linecap:round;stroke-linejoin:round;stroke-miterlimit:10;}
	.st3{fill:#00B60F;}
	.st4{fill:#EBF2FF;}
	.st5{fill:none;stroke:#003188;stroke-width:7;stroke-linecap:round;stroke-linejoin:round;stroke-miterlimit:10;}
	.st6{fill:#003188;stroke:#003188;stroke-width:7;stroke-linecap:round;stroke-linejoin:round;stroke-miterlimit:10;}
</style>
<g id="background">
	<rect class="st0" width="3000" height="2250"/>
</g>
<g id="color_shadow">
	<g>
		<path class="st1" d="M2400.8,631.7c-14.6-46.5-12.3-98.1,6.1-143.2c-1.9,0.3-3.7,0.7-5.6,1c0,0-3.2,0.7-3.3,0.7
			c-0.9,0.2-1.7,0.4-2.6,0.6c-24.4,6.1-47.7,15.8-71.1,24.9c-85.3,33.4-177.9,53-269.6,52.9c-41,0-83.3-2.5-123.5-10.8
			c-14.1-2.9-28-6.9-41.1-12.4l8.5,274.1c27.9-16.8,72.4-21.1,103.8-12.4c31.4,8.7,60.6,23.9,91.6,33.6
			c55.1,17.3,115.7,16.6,170.3-2c33.4-11.3,64.5-29,98-40c17.1-5.6,38.7-8.3,50.7,5.1c8.4-34.5,16.9-70.2,10.3-105.1
			C2418.8,675.6,2407.9,654.2,2400.8,631.7z"/>
	</g>
</g>
<g id="color_outline">
	<g>
		<path class="st2" d="M1889.5,528.1c126.4,41.4,264.8,15.2,391.5-25.1c44-14,88.2-29.8,134.3-32.4c-25.7,49-31,108.4-14.4,161.2
			c7.1,22.5,18,44,22.4,67.2c6.6,34.9-1.8,70.6-10.3,105.1c-12.1-13.4-33.6-10.7-50.7-5.1c-33.6,10.9-64.6,28.6-98,40
			c-54.7,18.5-115.2,19.3-170.3,2c-31.1-9.7-60.2-24.9-91.6-33.6c-31.4-8.7-66.8-10.1-94.7,6.7"/>
		<path class="st3" d="M2233,611.9c-0.8-0.8-2.1-0.9-3-0.1L2116.8,711l-62.3-49.3c-0.9-0.7-2.2-0.6-3,0.2v0c-0.8,0.8-0.9,2.1-0.2,3
			l56.9,71.9l8.6,10.9l9.6-10.9l106.8-121.9C2233.9,614.1,2233.8,612.7,2233,611.9z"/>
	</g>
</g>
<g id="shadow">
	<g>
		<path class="st4" d="M733.8,983.8c11.9,19.5-12.4,61.4,25.9,60c20.9-0.8,51.6-51.5,66.7-63.3c54.7-42.5,118.9-44,160.6-107
			c45.6-68.8,26.4-151.7,49.4-227.2c9.9-32.6,25.9-63.7,49.8-88.2c11.5-11.8,53.3-30.4,30.5-47.4c-34.9-25.9-114.6,60-130.5,82.1
			c-38.3,53.7-50.4,132-110.8,167.2c-61.4,35.8-130.9,30.1-178.9,91.3c-19.5,25-43,67.3-32.8,100.2c4,12.7,11.3,22.2,23.2,28.2
			C699.1,985.9,727.7,973.9,733.8,983.8z"/>
		<path class="st4" d="M1087.4,587.4c-18.2,24.8-33.1,71.1,4.4,87.1c36.7,15.6,80.4-26.9,98.4-53.8c17.9-26.6,36.8-74.5-4.3-89.1
			C1150.1,518.9,1106.2,561.8,1087.4,587.4z"/>
		<path class="st4" d="M1233.2,545.9c8.2,23.7,61.4,110.8,72.6,44.5c3.1-18.7-10.9-41.9-23.8-53.8
			C1271.4,527,1219.9,507.5,1233.2,545.9z"/>
		<path class="st4" d="M1155,752.3c29.8,21.9,43.6-21.4,17.8-39.2C1137.4,688.7,1125,730.4,1155,752.3z"/>
		<path class="st4" d="M1300.3,705c-19.7,14.9-19.1,50.5,10.2,32.4C1329.5,725.7,1322.1,688.6,1300.3,705z"/>
		<path class="st4" d="M1237.8,824.7c17.3,4,46.3-16.9,16.9-26C1238.9,793.8,1216.1,819.7,1237.8,824.7z"/>
		<path class="st4" d="M1344.9,1407.8c23.3-25.1-3.7-45.7-28.8-46.2c-24.5-0.5-57.4,12.1-83.9,15.5c-50.6,6.5-155.6,6.9-180.4,61.6
			c-33.6,74.3,62.1,64.4,101.1,47.9C1208.9,1462.8,1302.7,1453.3,1344.9,1407.8z"/>
		<path class="st4" d="M917.6,1430.6c-38.7-14.3-74.6-31-109.4-52.8c-19.3-12.1-71.7-67.5-86.7-56.3c-24.8,18.5,83.9,85.4,98.8,93.4
			c21.9,11.7,50,28.3,74.8,33.6c8.7,1.9,21.3,12.5,28.1,1.1C927.3,1442.7,927.4,1434.2,917.6,1430.6z"/>
		<path class="st4" d="M971.9,984.1c-63.6,27.1-121.7,48.6-152.2,114.6c-13.8,29.7-79.7,138.4-11.9,120.3
			c49.6-13.2,98.9-62.8,128.3-102.7C944.4,1105,1013.9,966.2,971.9,984.1z"/>
		<path class="st4" d="M1482.3,1126.8c64.8,27,68.5-3.7,39.5-55c-24.7-43.7-61.2-72-107.9-90.6c-54-21.6-46.7,12.8-26.2,53.3
			C1408.1,1074.9,1440.2,1109.2,1482.3,1126.8z"/>
		<path class="st4" d="M1760.3,1479.5c-75.2,29.4-91.6,127.2-185.6,64.2c-67.4-45.2-88.2-122-92.5-198.9
			c-2.3-40.8,15.7-209.9-39.6-230c-37.3-13.5-8.4,26.7-4.2,37.8c4.9,13.1,4.9,31.7,7,45.3c8,51.7-0.2,78-5.3,130.7
			c-7.8,81.7-35.5,139.1,27.3,204.4c41.5,43.2,123.3,125.5,190.5,106.3c38.8-11.1,62-49.6,82-81.4
			C1741.7,1555,1794.8,1466,1760.3,1479.5z"/>
		<path class="st4" d="M787.1,1579.9c-9.1,11.4-71.6,103.3-21.9,77.9c4.8-2.4,38.8-54.9,39.4-60.4
			C805.2,1590.9,801.8,1561.3,787.1,1579.9z"/>
		<path class="st4" d="M999.2,1590c-13.1-25.2-18.1,12.8-17.1,21c1.3,10.2,24.8,75.1,31.3,80C1060.4,1727.1,1007.5,1606,999.2,1590z
			"/>
		<path class="st4" d="M1021.5,1574.2c-19.2-20-14.7,16.1-11.3,24.1c4.1,9.5,43.1,60.5,51.1,63.8
			C1116.2,1684.5,1033.9,1587.1,1021.5,1574.2z"/>
		<path class="st4" d="M1817.2,1078.5c-35.3,9.7-44.7,132.7-4.4,129.1C1856.9,1203.7,1838.6,1072.6,1817.2,1078.5z"/>
		<path class="st4" d="M1969,1128.8c-7.1-7.1-15.7-1.6-21.2,3.4c5-5.3,25.7-21.7,24.6-31.2c-1-8.8-11.4-16.6-19.6-9.8
			c6.9-8.5,6.2-21.9-6.9-23.3c-15.1-1.6-47.1,50.5-54.5,59.5c-12.5,15.3-29.8,27.2-15.3,43.2c3.9,4.3,30,5.7,35.2,0.1
			C1911.1,1203.5,1988.6,1148.3,1969,1128.8z"/>
		<path class="st4" d="M1876.2,1060.4c0.8,22.8,19.4,7.1,24.7,0c7.4-10-2.2-57.8-2.6-69.1c-2-53.7-4-107.4-6-161.2
			c-1.7-46-3.4-92.1-5.1-138.1c-1.2-30.9-2.3-61.9-3.5-92.8c-0.6-15.2,5.7-60.6-2.6-70.2c-31.6-36.6-23.3,36.8-22.5,57.6
			c1.9,49.9,3.7,99.8,5.6,149.6C1868.2,844.3,1872.2,952.3,1876.2,1060.4z"/>
		<path class="st4" d="M1891.7,1176.1c-25.4,0-8.4,187.7,6.6,184.7C1922.4,1356,1910.5,1176.1,1891.7,1176.1z"/>
		<path class="st4" d="M1155.1,1001.1c-18.8-3.5-5.5,15.3-2.7,18.9c0.2,0.3,50.9,32.5,52.1,32.9c24.9,8.1,13-12,4.9-23.5
			C1198.4,1014,1172.8,1004.4,1155.1,1001.1z"/>
		<path class="st4" d="M1393.5,1711.8c13.1-17.6-6.6-79-7.8-105.7c-29.6-17.8-43.8,71.6-48,92.3c-5.9,28.9-16.4,120.2,44.2,103.9
			C1433,1788.5,1353.8,1765.4,1393.5,1711.8z"/>
	</g>
</g>
<g id="outline">
	<g>
		<path class="st5" d="M1205.3,696.3c0.1,3.7,0.1,7.5,0.2,11.2c1.7-3.7,1.8-8,0.5-11.8"/>
		<path class="st5" d="M1281.1,689c-0.2,3.5-0.5,7.1-0.7,10.6c1.2-3.1,1.7-6.4,1.4-9.7"/>
		<path class="st5" d="M1182.4,675.8c11.2-5.8,24.5-7.4,36.7-4.2"/>
		<path class="st5" d="M1299.4,658.2c-7.5,0.2-15.1,0.4-22.3,2.3c-7.2,2-14.2,5.9-18.3,12.2c-5.3,8.1-5.2,18.7-2.4,28
			c2.8,9.2,8.1,17.5,12.5,26.1c0.8,1.6,1.7,3.4,1.4,5.2c-0.2,1.5-1.2,2.8-2.1,3.9c-3.3,4.1-7.1,7.7-11.3,10.9"/>
		<path class="st5" d="M1221.2,763.1c5.5,5.3,13,8.3,20.7,8.9s15.3-1.1,22.3-4.2"/>
		<path class="st5" d="M1119.7,691.7c-4-3-9-4.5-13.9-4.7c-12.2-0.5-24.2,6.9-29.8,17.8c-5.6,10.9-4.7,24.6,1.7,35
			c6.4,10.4,17.9,17.4,30,18.9"/>
		<path class="st5" d="M1096.1,713c7,3.2,13,8.8,16.6,15.6"/>
		<path class="st5" d="M1101.8,765c5.4,53.9,6.7,108.1,4,162.2"/>
		<path class="st5" d="M1319.8,659.2c3,48.6-4.4,97.8-21.5,143.3c-8,21.3-20,43.6-41.4,51.4c-16.1,5.9-34.1,2-50.1-4.2
			c-21.9-8.5-42.3-21.7-56.6-40.3"/>
		<path class="st5" d="M1283.3,832.3c0,29,1.1,63.5,2.9,95"/>
		<path class="st5" d="M1228.6,582.5c-14.3,47.2-52.5,86.5-99.3,102.1"/>
		<path class="st5" d="M1211.1,579.2c-16.3,37.1-49.2,64-82.4,87.3"/>
		<path class="st5" d="M1080.3,776.8c-10.5-8.5-19.3-19-25.7-30.9c-10.8-19.9-14.9-42.8-15.2-65.4c-0.6-44.7,13.8-90.4,43.7-123.6
			c29.9-33.2,76.2-52.6,120.4-45.9c4.4,0.7,8.8,1.6,13.3,1.7c5,0.1,9.9-0.9,14.9-1.1c15.4-0.7,30.3,5.9,42.9,14.7
			c36.9,25.9,57.3,73.6,50.4,118.3"/>
		<path class="st5" d="M1224.2,525c7.9,49.5,40.8,94.3,85.5,116.8"/>
		<path class="st5" d="M1255.5,552.5c11.5,25.7,30.7,48,54.3,63.4"/>
		<path class="st5" d="M1087,586.1c-5.9,3.6-9.4,10-12.4,16.2c-5.7,12.2-10.3,24.8-13.7,37.8"/>
		<path class="st5" d="M1086.2,791c-6,22.1-15.5,43.3-27.8,62.5"/>
		<path class="st5" d="M1090.2,811.4c-4.1,16.8-7.3,33.8-9.6,50.9"/>
		<path class="st5" d="M1223.1,923.3c0.8,8.1,0.3,16.3-1.4,24.3"/>
		<path class="st6" d="M1150.2,809.4c11.4,23,25.7,46.5,48.1,60c22.4,13.5,51.3,18.3,75.9,8.9c1.8-0.7,3.7-1.5,4.9-3
			c1.4-1.9,1.5-4.3,1.6-6.7c0.1-8.4,0.3-16.8,0.4-25.3c-13.6,16.3-38.9,18.4-60.1,13.9c-23.7-4.9-45.5-20.7-62.9-36.9"/>
		<path class="st5" d="M1091.4,940.9c-61.8,21.4-122.9,44.4-183.5,69.1c-24.8,10.1-50.3,21-68,41c-15.9,17.9-24,41.2-31.5,63.9
			c-63.9,192.6-114.2,389.7-150.4,589.4"/>
		<path class="st5" d="M834.9,1748.2l128-458.9c1.9-7-8.1-10.4-10.9-3.7c-1.8,4.4-2.9,9.4-3.4,14c-9.6,94.6,32.1,189.7,17.4,283.6
			c-11.2,71.4-54.2,136.1-57.6,208.3"/>
		<path class="st5" d="M1435.8,1122.2c37.7,85,18.4,183.6-6.6,273.2c-25,89.6-55.4,182.3-37.8,273.7c3.2,16.6,7.9,34.2,1.7,49.9
			c-2.8,7.1-7.6,13.3-9.9,20.5c-4.1,12.7,1.1,27.9,12.1,35.5"/>
		<path class="st5" d="M1297.6,941.4c30,11.3,60.1,22.6,90.1,33.9c31.3,11.8,63.3,23.9,89.2,45.2c36.1,29.6,56.7,73.6,74.6,116.6
			c35.6,85.7,65.3,173.9,88.6,263.8c5,19.2,7,44.8-10.7,53.7c-15.7-22.5-0.1-52.9,15.9-75.1c43.1-60,90.6-116.8,141.9-169.9"/>
		<path class="st5" d="M1423.8,1467.3c35,45.6,74,88.1,116.4,126.9c33.8,30.9,77.6,61.4,121.8,49.2c38.3-10.6,60.8-49,79.3-84.2
			c40.5-76.9,103.1-193.2,143.6-270.1"/>
		<path class="st5" d="M1443.2,1416.5c59.7-50.3,122.1-97.4,186.9-140.9"/>
		<path class="st5" d="M1445.8,1452.9c61.5-54.7,130.4-101.1,204.3-137.4"/>
		<path class="st5" d="M1820.1,1262.1c-7.4,14.6-14.9,29.2-22.3,43.8"/>
		<path class="st5" d="M1090.8,1422.8c42.7,14.3,88.4-4.6,131.6-17.2c35.2-10.3,71.7-16.6,108.3-18.7"/>
		<path class="st5" d="M1278.6,1409.1c-40.7,13.1-79.7,31.5-115.7,54.5"/>
		<path class="st5" d="M1464.5,1170.2c-0.3-10.8,3.4-21.6,10.1-30"/>
		<path class="st5" d="M709.6,1344c53.6,42.6,114.8,75.5,179.9,96.9"/>
		<path class="st5" d="M702.4,1299.7c60.4,45,124.7,84.8,192,118.8"/>
		<path class="st5" d="M994.5,1600.9c17.2,24.2,30.7,51.1,39.7,79.4"/>
		<path class="st5" d="M1008.6,1586.6c18,21.6,37.6,41.9,58.6,60.7"/>
		<path class="st5" d="M762.1,1641.5c9.2-13.4,18.4-26.9,27.6-40.3"/>
		<path class="st5" d="M1104.7,942.3c43.3,27.2,87,53.7,131,79.6c17.8-26.2,35.6-52.4,53.4-78.7"/>
		<path class="st5" d="M1163.1,1006.1c18.3,10.4,35.8,22.2,52.3,35.1"/>
		<path class="st5" d="M1804,1212.8c-20.4-31.1-16.7-72.8-2.4-107.2c9.8-23.5,24.1-45.3,30.3-70c3-12.1,4-24.6,2.9-37
			c-0.6-6.3-1.6-12.9,0.4-18.9c2-6,8.4-11.2,14.4-9.3c4.3,1.3,6.9,5.6,8.9,9.6c14.6,29.5,17.6,64.5,8.4,96.1"/>
		<path class="st5" d="M1888.1,1074.7c11.7-13.7,23.9-27.8,40.4-34.9c5.8-2.5,14.1-3.2,17,2.4c1.5,2.9,0.9,6.5-0.1,9.7
			c-4.1,13.9-12.6,25.9-21.4,37.4c-6.9,9.1-14.1,18-21.5,26.7c-9.5,11.1-19.6,22.1-32.6,28.8c-2.6,1.3-5.8,2.4-8.3,1
			c-1.8-1-2.7-3.1-3.1-5.1c-1.7-7.3,1.3-14.8,4.8-21.5c4.9-9.5,10.9-18.6,17.7-26.8"/>
		<path class="st5" d="M1868.5,1148.1c-4.8,4.9-7.6,11.6-7.8,18.5c-0.1,2.1,0.2,4.4,1.4,6.1c2,2.9,6.1,3.6,9.4,2.6s6.1-3.3,8.8-5.5
			c26.7-22.6,53.8-45.8,71.9-75.7c3.8-6.3,7.3-13.2,7.3-20.6c0-7.4-4.5-15.2-11.6-16.8"/>
		<path class="st5" d="M1887.6,1167.9c1.1,4.7,6.6,7.3,11.4,6.9c4.8-0.5,9.1-3.2,13-6c21.9-15.2,41.7-33.9,55.8-56.4
			c3.2-5.1,6.2-10.9,5.4-16.8c-0.8-6-7.3-11.3-12.8-8.8"/>
		<path class="st5" d="M1910.9,1174.2c0.3,3.8,4.3,6.6,8.3,6.9c4,0.4,7.9-1.1,11.6-2.7c13.3-5.9,25.5-14.2,35.4-24.5
			c7-7.2,13.2-15.8,14.2-25.5c0.3-3.1,0.1-6.3-1.4-9.1s-4.4-5-7.7-5.1"/>
		<path class="st5" d="M1865.2,1180.2c-2.8,7.5-6.2,14.8-10.1,21.9"/>
		<path class="st5" d="M1925.9,1225.2c14.6-17.9,27-37.6,36.9-58.4"/>
		<path class="st5" d="M1559.2,803.7c60.5-57.8,132.4-103.6,210.4-133.9"/>
		<path class="st5" d="M1575,844.2c35.6-42.4,78.3-78.9,125.6-107.6"/>
		<line class="st5" x1="1880.2" y1="1169.8" x2="1887.6" y2="1359.1"/>
		<line class="st5" x1="1855.2" y1="523.9" x2="1877.2" y2="1092.6"/>
		<line class="st5" x1="1912.2" y1="1173" x2="1919.4" y2="1359.1"/>
		<line class="st5" x1="1887" y1="523.9" x2="1907.6" y2="1053.8"/>
		<path class="st5" d="M1855.2,523.9c8.8-8.8,23-8.8,31.8,0"/>
		<path class="st5" d="M1887.6,1359.1c8.9,8.6,22.9,8.6,31.8,0"/>
		<path class="st5" d="M837.3,1099c6.8-20.4,19.8-38.7,36.8-51.8"/>
		<g>
			<path class="st5" d="M1134.1,513.1c-35.1-16.2-78.3-6.8-109.4,16.2c-31.1,23-51.6,57.7-66.1,93.6
				c-14.4,35.5-24.6,74.4-51.7,101.4c-25.2,25.1-61.2,35.8-96.3,42s-71.1,9.1-104.1,22.4s-63.4,39.9-69.3,75"/>
			<path class="st5" d="M720.9,832c-50.3,40.7-75.5,110.1-63.1,173.7c5-8.3,9.9-16.5,14.9-24.8c-8.2,27.8,1,59.8,22.5,79.1
				c11.7-23.3,30.6-42.9,53.5-55.4c-13.4,21.8-18,48.7-12.8,73.7"/>
			<path class="st5" d="M752.7,1081.6c10.6-22.9,25.7-43.7,44.2-60.9"/>
			<path class="st5" d="M808.1,1011.5c29.5-25.2,68.6-35.3,103.9-51.3c64.5-29.2,121.4-84.1,134.8-153.7"/>
			<path class="st5" d="M1073.1,535.2c-38,16.9-70.3,46.5-90.5,82.9c-26.9,48.6-33.9,110-75,147.4c-23.7,21.5-55.5,31.7-86.8,38
				c-17.5,3.6-35.8,6.4-50.7,16.2"/>
			<path class="st5" d="M870.5,812.3c-42.9,13.8-80,44.8-101.3,84.6"/>
			<path class="st5" d="M1027.8,757.9c-15,46.7-47.4,87.7-89.5,113"/>
			<path class="st5" d="M919.8,879.2c-2.5,1.1-5,2.2-7.5,3.3"/>
			<path class="st5" d="M885.2,567.2c0.1,0.6,0.1,1.2,0.2,1.8"/>
		</g>
		<path class="st5" d="M1449,919.7c-1.9-0.7-3.9,1.7-3,3.4c1.3,0.1,2.8-0.1,3.2-1.3c0.4-1.2-2.3-1.5-1.7-0.4"/>
		<path class="st5" d="M607.9,1391.8c-1.9,0.8-3.3,2.8-3.5,4.9c0.9,1.3,3.3,0.9,3.8-0.6s-1.1-3.2-2.6-2.8c-0.9-0.5-1.1,1.5-0.1,1.6
			c1,0.1,1.7-0.9,2.1-1.8"/>
		<path class="st5" d="M1432.3,1605.3c-1.7,1.4-0.8,4.7,1.4,5.1c1.9-0.5,0.3-4.2-1.3-3.1"/>
		<path class="st5" d="M2007.2,1232.7c-1.6-1.1-3.3,2.5-1.5,3.1c0.9,0.9,2.9-0.2,2.5-1.5c-0.3-1.3-2.6-1.3-2.9-0.1"/>
	</g>
</g>
</svg>
